<svg width="112" height="774" viewBox="0 0 112 774" fill="none" xmlns="http://www.w3.org/2000/svg">
<path d="M68.1947 619.07C67.39 618.466 66.3842 618.265 65.3784 618.064C63.9702 617.863 62.7633 618.466 61.5563 619.07C59.7458 620.076 58.9411 621.484 58.5388 623.295C58.5388 623.899 58.3376 624.301 58.3376 624.905H73.0226C72.0168 622.289 70.4075 620.478 68.1947 619.07Z" fill="#051B30"/>
<path d="M33.1921 615.85C33.3933 615.85 33.5945 616.052 33.7956 616.052C36.8131 616.454 39.4282 615.85 42.0434 614.039C44.8597 612.027 45.0608 610.015 44.4573 606.796C44.2562 605.388 43.2504 604.583 42.2445 603.778C41.2387 603.174 40.2329 602.571 39.2271 602.369L35.2038 606.997C35.6061 607.802 36.2096 608.406 36.8131 609.009C34.6003 610.82 33.5945 613.033 33.1921 615.85Z" fill="#051B30"/>
<path d="M78.8561 612.028C79.2585 613.235 79.6608 614.442 80.0631 615.649C81.0689 615.247 82.0748 614.844 82.8794 614.241L77.448 608.205C77.2468 608.406 77.0457 608.607 77.0457 608.808C77.6491 609.814 78.2526 610.82 78.8561 612.028Z" fill="#051B30"/>
<path d="M68.396 605.186C66.9878 606.796 66.9878 611.021 68.396 612.43C69.2006 613.235 70.0053 614.039 71.0111 614.643C73.2239 615.85 75.4367 616.253 77.8507 615.85C78.0518 615.85 78.4542 615.649 78.8565 615.649C78.6553 614.643 78.4542 613.838 78.0518 613.033C77.4483 611.424 76.6437 610.015 75.2355 608.808C75.6379 608.406 76.2414 607.802 76.6437 607.198L72.2181 602.369C71.6146 602.571 71.0111 602.772 70.6088 603.174C69.8041 603.778 69.2006 604.381 68.396 605.186Z" fill="#051B30"/>
<path d="M30.175 624.502C30.175 624.301 29.9739 624.1 29.7727 623.899C28.5657 622.893 27.1576 622.088 25.7494 621.283C25.5483 621.283 25.5483 621.484 25.5483 621.484C25.3471 621.686 25.3471 621.887 25.1459 622.289C24.7436 623.295 24.1401 624.1 23.5366 624.905H30.175C30.175 624.704 30.175 624.502 30.175 624.502Z" fill="#051B30"/>
<path d="M50.2906 619.07C50.0894 619.07 49.8882 618.869 49.8882 618.869C49.0836 618.265 48.2789 618.064 47.2731 618.064C46.0661 618.064 44.8591 618.466 43.8533 619.07C41.6405 620.478 40.0312 622.289 38.8242 624.704C38.8242 624.704 38.8242 624.704 38.8242 624.905H53.5092C53.5092 624.301 53.5092 623.698 53.308 623.094C52.9057 621.283 52.1011 619.875 50.2906 619.07Z" fill="#051B30"/>
<path d="M31.9852 615.448C32.991 612.027 32.7899 612.027 35.0027 608.808C34.8015 608.406 34.3992 608.003 34.198 607.601L28.5654 613.838C29.3701 614.442 30.1747 614.844 30.9794 615.247C31.3817 615.448 31.7841 615.448 31.9852 615.448Z" fill="#051B30"/>
<path d="M45.2618 610.619C45.0606 612.631 43.6525 614.039 42.0432 615.045C39.428 616.655 36.8129 617.259 33.7954 616.856C33.5943 616.856 33.1919 616.856 32.9908 616.856C32.7896 618.466 32.9908 620.076 32.9908 621.685C32.9908 621.887 33.1919 622.088 33.3931 622.289C34.6001 623.094 36.0082 623.899 37.2152 624.703H37.6176C37.6176 624.502 37.8187 624.502 37.8187 624.301C37.8187 624.1 38.0199 623.899 38.0199 623.899C39.428 621.082 41.4397 618.868 44.256 617.661C47.4746 616.253 50.2909 617.46 52.7049 619.673C53.7107 620.679 54.113 622.289 54.3142 623.697C54.3142 624.1 54.3142 624.502 54.3142 624.905H57.5328C57.5328 624.704 57.5328 624.502 57.5328 624.1C57.734 620.076 59.9468 618.265 63.3666 617.259C65.1771 616.655 66.7864 617.259 68.3957 618.064C70.8097 619.472 72.8213 621.484 74.0283 624.1C74.2294 624.301 74.2294 624.704 74.4306 624.905H74.8329C76.0399 624.502 78.0516 623.094 78.6551 622.49C78.8562 622.289 78.8562 622.088 79.0574 621.685C79.0574 620.679 79.2586 619.875 79.2586 618.868C79.2586 618.265 79.2586 617.661 79.2586 617.058C79.0574 617.058 79.0574 617.058 79.0574 617.058C78.8562 617.058 78.8562 617.058 78.6551 617.058C75.6376 617.46 73.0225 616.856 70.4073 615.247C67.591 613.436 66.1829 610.619 66.9875 607.198C67.3899 605.186 68.5968 603.577 70.4073 602.571C71.0108 602.168 71.6143 601.967 72.0166 601.766L69.8038 599.15C69.4015 599.351 69.2003 599.552 68.798 599.754C66.9875 600.76 65.1771 601.162 63.1654 600.357C60.5503 599.351 58.5386 597.742 58.1363 594.925C58.1363 594.723 58.1363 594.723 57.9351 594.522C58.3375 594.522 58.7398 594.522 58.941 594.522C59.3433 596.333 60.3491 597.742 61.9584 598.748C64.1712 600.156 66.384 599.955 68.3957 598.748C68.5968 598.546 68.798 598.546 68.9992 598.345L55.9235 583.456L43.049 597.943C44.0548 598.748 45.2618 599.15 46.4688 599.552C47.6758 599.754 49.0839 599.552 50.0897 598.748L50.2909 598.546C52.1014 597.742 52.906 596.333 53.3084 594.321C53.7107 594.321 54.113 594.321 54.3142 594.321C54.113 594.723 54.113 595.327 53.9119 595.73C53.3084 597.339 52.5037 598.546 50.8944 599.351C50.0897 599.754 49.2851 600.357 48.4804 600.559C46.6699 600.961 45.0606 600.559 43.4513 599.754C42.8478 599.552 42.4455 599.15 42.0432 598.748L39.6292 601.363C40.4339 601.565 41.0373 601.967 41.842 602.369C45.463 604.784 45.8653 607.198 45.2618 610.619Z" fill="#051B30"/>
<path d="M24.9443 619.472C24.9443 619.271 24.9443 619.07 25.1455 618.869C25.1455 618.466 25.1455 618.265 25.3466 617.863L23.9385 619.472C24.3408 619.472 24.542 619.673 24.9443 619.875C24.9443 619.673 24.9443 619.472 24.9443 619.472Z" fill="#051B30"/>
<path d="M25.95 620.076C27.3581 620.881 28.5651 621.686 29.7721 622.49C30.7779 623.094 31.1802 623.698 31.1802 624.905H35.0023C34.1977 624.301 33.393 623.899 32.5884 623.295C32.186 623.094 31.7837 622.49 31.7837 622.088C31.7837 620.478 31.7837 619.07 31.5825 617.46C31.5825 617.259 31.5825 616.857 31.5825 616.857C30.3756 616.253 29.3697 615.851 28.3639 615.247C28.1628 615.046 27.9616 615.046 27.7604 614.844L25.95 616.857C26.1511 617.863 26.1511 618.869 25.95 620.076Z" fill="#051B30"/>
<path d="M24.3409 621.484C24.3409 621.283 24.542 621.082 24.542 620.679C23.9385 620.478 23.5362 620.277 22.9327 620.076L18.9094 624.502H22.1281C23.1339 623.899 23.7374 622.691 24.3409 621.484Z" fill="#051B30"/>
<path d="M87.9089 622.088C88.3112 623.094 88.9147 624.1 89.7194 624.905H92.3345L88.5124 620.478C88.1101 620.679 87.9089 620.679 87.5066 620.88C87.5066 621.283 87.7078 621.685 87.9089 622.088Z" fill="#051B30"/>
<path d="M86.702 622.088C86.5008 621.887 86.5008 621.484 86.2996 621.283C85.0926 621.686 82.8798 623.094 82.0752 623.698C81.874 623.899 81.6729 624.1 81.6729 624.301V624.503H88.1101C87.7078 623.899 87.1043 623.094 86.702 622.088Z" fill="#051B30"/>
<path d="M15.49 614.845L55.5217 569.573L95.5534 614.845C93.7429 601.364 87.3056 590.096 71.816 581.645C63.3671 577.017 59.3438 570.78 57.3322 566.152C56.7287 566.353 56.3263 566.555 55.7228 566.555C55.1193 566.555 54.3147 566.353 53.7112 565.951C51.9007 570.378 47.6763 576.816 39.2274 581.645C23.7377 590.297 17.3005 601.364 15.49 614.845Z" fill="#051B30"/>
<path d="M80.0636 621.484C80.0636 622.49 79.6613 623.094 78.8566 623.496C78.2531 623.899 77.4485 624.301 76.845 624.703H80.6671C80.6671 624.502 80.6671 624.502 80.6671 624.301C80.6671 623.697 80.8683 623.094 81.4717 622.691C82.4776 622.088 83.2822 621.484 84.2881 620.88C84.8915 620.478 85.2939 620.277 85.8974 620.076C85.6962 619.271 85.495 618.265 85.495 617.46L83.2822 615.045C82.2764 615.649 81.6729 616.051 79.8624 616.655C80.0636 618.265 80.0636 619.874 80.0636 621.484Z" fill="#051B30"/>
<path d="M87.708 619.673L86.9033 618.869C86.9033 619.271 87.1045 619.673 87.3057 619.875C87.3057 619.673 87.5068 619.673 87.708 619.673Z" fill="#051B30"/>
<path d="M25.1455 730.74C25.9502 742.008 30.7781 751.263 43.2503 758.105C54.3143 764.141 55.5213 774 55.5213 774H55.7225C55.7225 774 56.9295 764.141 67.9935 758.105C80.6668 751.263 85.2936 742.008 86.0983 730.74H25.1455Z" fill="#051B30"/>
<path d="M55.3203 547.641C54.1133 545.025 52.9063 539.19 52.9063 530.337C52.9063 520.075 54.7168 513.838 55.9238 512.027C57.1308 513.838 58.9413 520.075 58.9413 530.337C58.9413 539.19 57.5331 545.025 56.5273 547.641C57.7343 548.043 58.7401 549.452 58.7401 551.263C58.7401 551.665 58.7401 552.269 58.5389 552.671C63.568 548.647 63.7692 532.349 63.7692 530.337C63.7692 527.922 63.568 506.997 56.125 506.997C48.6819 506.997 48.4807 527.922 48.4807 530.337C48.4807 532.349 48.6819 548.647 53.711 552.671C53.5098 552.269 53.5098 551.866 53.5098 551.263C53.1075 549.452 53.9121 547.842 55.3203 547.641Z" fill="#051B30"/>
<path d="M55.722 560.719C55.722 560.719 55.9231 563.134 57.3313 566.353C58.9406 565.548 60.1476 563.335 60.1476 560.719C60.1476 557.701 58.5383 555.286 56.3255 554.683C56.1243 554.683 55.9231 554.884 55.5208 554.884C55.3197 554.884 55.1185 554.884 54.7162 554.683C52.5034 555.085 50.894 557.701 50.894 560.719C50.894 563.134 51.8999 565.146 53.5092 566.152C54.9173 562.932 55.1185 560.719 55.1185 560.719H55.722Z" fill="#051B30"/>
<path d="M57.5326 566.353C56.1244 563.134 55.9233 560.719 55.9233 560.719H55.5209C55.5209 560.719 55.3198 562.933 53.9116 566.152C54.5151 566.554 55.1186 566.755 55.9233 566.755C56.3256 566.755 56.9291 566.554 57.5326 566.353Z" fill="#051B30"/>
<path d="M56.527 554.683C57.3316 554.281 57.9351 553.476 58.3374 552.47C57.5328 553.074 56.7281 553.476 55.7223 553.476C54.7165 553.476 53.9118 553.074 53.1072 552.47C53.5095 553.476 54.113 554.281 54.9177 554.683C55.1188 554.683 55.32 554.683 55.7223 554.683C56.1246 554.683 56.3258 554.683 56.527 554.683Z" fill="#051B30"/>
<path d="M55.3203 547.641C55.5215 548.043 55.7226 548.446 55.7226 548.647C55.9238 548.446 56.125 548.043 56.125 547.641C55.9238 547.641 55.7226 547.641 55.7226 547.641C55.5215 547.439 55.5215 547.641 55.3203 547.641Z" fill="#051B30"/>
<path d="M58.3377 552.671C58.5389 552.269 58.5389 551.866 58.5389 551.263C58.5389 549.452 57.533 548.043 56.3261 547.641C56.1249 548.043 55.9237 548.446 55.9237 548.647C55.7226 548.446 55.5214 548.043 55.5214 547.641C54.3144 548.043 53.3086 549.452 53.3086 551.263C53.3086 551.665 53.3086 552.269 53.5098 552.671C54.3144 553.275 55.1191 553.677 56.1249 553.677C56.7284 553.476 57.533 553.275 58.3377 552.671Z" fill="#051B30"/>
<path d="M56.5268 554.683C56.3256 554.683 56.1245 554.683 55.7221 554.683C55.3198 554.683 55.3198 554.683 54.9175 554.683C55.1186 554.683 55.3198 554.884 55.7221 554.884C56.1245 554.884 56.3256 554.884 56.5268 554.683Z" fill="#051B30"/>
<path d="M83.8857 718.265L83.0811 721.686H77.6496C77.4485 722.088 77.0461 722.491 76.845 722.893C77.4485 723.899 78.052 724.905 78.6554 725.911H85.6962C86.2997 725.106 86.9032 724.302 87.5067 723.497L87.7078 722.893C86.9032 721.283 85.495 719.473 83.8857 718.265Z" fill="#051B30"/>
<path d="M13.2771 669.976C15.2887 671.585 16.6969 673.597 17.5015 676.012C17.7027 676.012 18.105 675.811 18.3062 675.811L16.4957 667.561C15.4899 668.366 14.4841 668.969 13.2771 669.976Z" fill="#051B30"/>
<path d="M25.9499 711.625C26.5534 714.04 26.3523 716.454 25.7488 718.869C26.1511 718.467 26.7546 718.064 27.1569 717.662L25.9499 711.625Z" fill="#051B30"/>
<path d="M20.7197 689.694C19.3116 690.901 18.5069 692.309 18.7081 694.12C18.7081 694.322 18.7081 694.523 18.7081 694.724C18.7081 695.931 18.9092 696.937 19.5127 697.742C20.1162 698.748 21.122 699.553 22.1279 699.955C22.5302 700.157 23.1337 700.358 23.536 700.559L21.122 689.09C21.122 689.291 20.9209 689.493 20.7197 689.694Z" fill="#051B30"/>
<path d="M86.9033 712.229V712.43C86.2998 715.247 86.9033 718.064 88.1102 720.68L89.7196 712.631C88.9149 712.43 87.9091 712.229 87.1044 712.028C87.1044 712.229 87.1044 712.229 86.9033 712.229Z" fill="#051B30"/>
<path d="M97.7655 662.33C97.9667 662.128 98.369 661.927 98.5702 661.726C97.7655 660.72 96.9609 660.116 96.3574 659.11L95.3516 663.738C96.1562 663.537 96.9609 662.933 97.7655 662.33Z" fill="#051B30"/>
<path d="M91.3285 698.95C92.5354 697.742 93.3401 696.334 93.1389 694.523C93.1389 694.322 93.1389 694.121 93.1389 693.919C93.1389 692.712 92.9378 691.706 92.1331 690.7C91.5296 689.895 90.725 689.292 89.9203 688.688L87.3052 700.962C88.9145 700.559 90.3226 699.956 91.3285 698.95Z" fill="#051B30"/>
<path d="M94.3464 676.012C95.151 673.597 96.5592 671.786 98.5708 669.975C98.3697 669.774 98.3697 669.573 98.1685 669.573C96.9615 668.567 95.7545 667.963 94.5475 667.36L92.7371 675.81C93.1394 676.012 93.7429 676.012 94.3464 676.012Z" fill="#051B30"/>
<path d="M96.1571 622.49L99.9792 626.716L100.583 627.521L106.215 633.758L102.795 650.257L102.192 653.275L101.186 657.702L100.583 660.921L100.382 661.726L100.18 662.933L98.9734 668.969L98.3699 671.786L95.5536 685.267L95.3524 686.273L94.1454 692.108L92.7373 699.352L91.7315 703.98L91.3291 705.388L89.921 711.626L89.7198 712.632L88.1105 720.68L87.7082 722.692L87.507 723.296L86.9035 726.113H86.0989C86.0989 726.314 86.0989 726.515 86.0989 726.716C86.0989 728.125 86.0989 729.332 85.8977 730.74H90.5245L111.043 632.35L95.5536 614.844C95.9559 617.259 96.1571 619.875 96.1571 622.49Z" fill="#051B30"/>
<path d="M86.2995 718.869C85.4948 716.253 85.4948 713.839 86.0983 711.626C85.8972 711.424 85.696 711.424 85.4948 711.223L84.2878 717.259C84.8913 717.662 85.4948 718.265 86.2995 718.869Z" fill="#051B30"/>
<path d="M44.4576 721.686H35.6064C36.0087 722.088 36.2099 722.491 36.6122 722.893C35.8076 723.899 35.0029 724.905 34.6006 725.911H44.0553C44.6588 724.704 44.6588 723.296 44.4576 721.686Z" fill="#051B30"/>
<path d="M14.4843 628.124C15.0878 628.325 15.4901 628.325 15.8924 628.325L18.9099 624.905H14.8866C14.8866 624.502 14.8866 623.899 14.8866 623.496C14.8866 623.094 14.8866 622.893 14.8866 622.49L11.4668 626.514C12.2715 627.118 13.2773 627.722 14.4843 628.124Z" fill="#051B30"/>
<path d="M24.9444 726.917C24.9444 726.716 24.9444 726.515 24.9444 726.314H24.3409V726.112L23.5362 721.887L21.7257 712.833L21.5246 711.827L20.1164 704.784L19.9153 703.376L18.7083 697.742L17.9036 694.322L16.2943 686.273L16.0931 685.267L12.6733 670.981L12.271 669.171L11.064 663.134L10.8629 661.927L10.2594 658.909L8.85123 651.867L5.02911 633.355L10.8629 626.716L11.4664 625.911L14.8862 621.887C14.8862 619.271 15.0873 616.856 15.4896 614.442L0 632.349L20.5188 730.74H25.1455C25.1455 729.533 24.9444 728.326 24.9444 726.917Z" fill="#051B30"/>
<path d="M20.9207 688.084L20.3172 684.664C19.7137 685.066 19.3114 685.267 18.7079 685.468C17.7021 685.871 16.8974 686.072 15.8916 686.072L17.5009 694.12C17.5009 693.517 17.5009 692.913 17.7021 692.309C18.1044 690.7 19.3114 689.291 20.9207 688.084Z" fill="#051B30"/>
<path d="M34.1979 721.686H27.9618L27.3583 718.869C26.1513 720.076 24.9443 721.485 24.1396 722.893C24.7431 723.899 25.5478 724.905 26.3525 725.911H33.3932C33.7955 724.905 34.399 723.899 35.2037 722.893C34.8014 722.491 34.399 722.088 34.1979 721.686Z" fill="#051B30"/>
<path d="M101.99 651.263C101.588 649.251 100.381 648.044 98.7716 647.239L96.5588 657.903C97.3635 659.11 98.1682 659.915 99.174 660.921C99.3751 660.921 99.3751 660.921 99.3751 660.72C100.18 659.714 100.783 658.909 101.186 657.702L102.191 653.275C102.191 652.671 102.191 651.867 101.99 651.263Z" fill="#051B30"/>
<path d="M20.1159 683.859L18.7078 677.018C18.1043 677.018 17.5008 677.219 16.8973 677.42C15.6903 674.402 14.2822 671.988 12.6729 671.183L15.6903 685.469C16.8973 685.469 18.1043 685.066 19.3113 684.463C19.5124 684.06 19.9148 683.859 20.1159 683.859Z" fill="#051B30"/>
<path d="M94.9497 665.146L94.7485 666.354C96.3578 666.957 97.766 667.762 98.973 668.969L100.18 662.933C99.9788 662.732 99.5765 662.531 99.3753 662.329C98.1683 663.537 96.559 664.543 94.9497 665.146Z" fill="#051B30"/>
<path d="M25.1457 709.412C25.3469 709.814 25.3469 710.016 25.5481 710.418C25.5481 710.418 25.5481 710.418 25.7492 710.418L23.9388 701.967C22.9329 701.565 22.1283 701.162 21.1225 700.76C19.7143 699.955 18.9096 698.949 18.3062 697.943L19.5131 703.577C22.1283 704.784 23.9388 706.796 25.1457 709.412Z" fill="#051B30"/>
<path d="M76.4428 721.686H67.3904C67.1893 723.094 67.3904 724.704 67.7928 725.911H77.2475C76.644 724.905 75.8393 723.899 75.2359 722.893C75.8393 722.491 76.2417 722.088 76.4428 721.686Z" fill="#051B30"/>
<path d="M24.5421 710.62C23.5362 708.205 21.9269 706.193 19.9153 704.785L21.3234 711.827C22.3293 711.626 23.5362 711.425 24.5421 711.022C24.5421 710.821 24.5421 710.821 24.5421 710.62Z" fill="#051B30"/>
<path d="M13.4785 661.525C13.4785 661.726 13.4785 661.726 13.4785 661.726L13.6797 661.927C14.2832 662.531 15.0878 662.933 15.6913 663.335L14.8867 659.714C14.6855 660.518 14.082 661.122 13.4785 661.525Z" fill="#051B30"/>
<path d="M14.4838 667.762C15.0872 667.36 15.8919 666.957 16.4954 666.756L16.0931 664.744C14.8861 664.14 13.6791 663.335 12.4721 662.329C11.8686 662.531 11.4663 662.933 11.064 663.134L12.271 669.17C12.271 669.17 12.271 669.17 12.4721 669.17C13.2768 668.768 13.8803 668.164 14.4838 667.762Z" fill="#051B30"/>
<path d="M25.1459 712.833C25.1459 712.631 24.9447 712.43 24.9447 712.028C23.7377 712.43 22.7319 712.631 21.5249 712.833L23.3354 721.887C24.7435 718.869 25.5482 716.052 25.1459 712.833Z" fill="#051B30"/>
<path d="M100.381 661.726L100.582 660.921C100.381 661.122 100.381 661.324 100.179 661.525C100.179 661.525 100.381 661.525 100.381 661.726Z" fill="#051B30"/>
<path d="M66.3839 721.686H45.4629C45.664 722.692 45.664 723.698 45.2617 724.704C45.2617 725.107 45.0605 725.509 44.8594 725.911H66.7863C66.3839 724.503 66.1828 723.094 66.3839 721.686Z" fill="#051B30"/>
<path d="M90.9266 700.559C89.7196 701.364 88.5126 701.766 87.3056 702.169L85.6963 710.217C85.8975 710.418 86.0986 710.418 86.2998 710.619C86.501 710.619 86.501 710.619 86.501 710.418C86.7021 710.217 86.7021 709.815 86.9033 709.613C87.9091 707.4 89.5184 705.388 91.7312 704.181L92.737 699.553C92.1336 699.754 91.5301 700.157 90.9266 700.559Z" fill="#051B30"/>
<path d="M87.5063 710.418C87.5063 710.619 87.5063 710.821 87.3052 711.022C88.1098 711.424 89.1156 711.625 89.9203 711.827L91.3285 705.589C89.7191 706.595 88.311 708.406 87.5063 710.418Z" fill="#051B30"/>
<path d="M92.5353 676.817L91.1272 683.255C92.133 684.06 92.9377 684.664 94.1447 684.865C94.547 685.066 94.9493 685.066 95.3516 685.066L98.1679 671.585C96.5586 673.195 95.5528 675.006 94.9493 677.219C94.1447 677.018 93.34 677.018 92.5353 676.817Z" fill="#051B30"/>
<path d="M90.9258 684.462L90.1211 687.883C90.3223 687.883 90.5234 688.084 90.5234 688.084C92.3339 689.291 93.3397 690.499 93.742 692.108L94.949 686.273C93.9432 686.072 92.9374 685.871 92.1327 685.267C91.9316 685.066 91.5292 684.664 90.9258 684.462Z" fill="#051B30"/>
<path d="M96.1561 624.905H92.1328L95.1503 628.325C96.5584 628.527 97.7654 628.124 98.9724 627.319C99.3747 627.118 99.5759 626.917 99.7771 626.716L95.9549 622.49C95.9549 622.893 95.9549 623.094 95.9549 623.496C96.1561 623.899 96.1561 624.301 96.1561 624.905Z" fill="#051B30"/>
<path d="M96.1562 629.331L101.185 635.166L98.7714 646.233C99.576 646.635 100.381 647.239 101.185 648.044C101.789 648.647 102.392 649.452 102.594 650.458L106.013 633.959L100.381 627.722C99.576 628.325 98.5702 628.728 97.5644 629.331C97.3632 629.13 96.7597 629.331 96.1562 629.331Z" fill="#051B30"/>
<path d="M11.6677 661.525C11.6677 661.324 11.6677 661.324 11.6677 661.525C11.4665 661.122 11.2653 660.921 11.0642 660.72C10.6618 660.318 10.4607 659.714 10.0583 659.11L10.6618 662.128C10.863 662.128 10.863 661.927 11.0642 661.927C11.4665 661.726 11.4665 661.525 11.6677 661.525Z" fill="#051B30"/>
<path d="M12.271 646.434L9.85699 634.965L15.0873 629.13C13.6791 628.929 12.271 628.124 10.8628 626.917L5.02905 633.557L8.85117 652.068C9.05234 649.452 10.2593 647.641 12.271 646.434Z" fill="#051B30"/>
<path d="M9.85739 651.666C9.45506 654.885 10.2597 657.702 12.0702 660.116C12.2714 660.318 12.4725 660.519 12.6737 660.72C13.4783 660.116 14.283 659.311 14.8865 658.507L12.6737 647.44C10.8632 648.647 10.0586 649.855 9.85739 651.666Z" fill="#051B30"/>
<path d="M25.5483 612.833C25.9507 614.04 26.1518 615.448 26.1518 616.655L27.9623 614.643C27.1577 614.04 26.5542 613.436 25.5483 612.833Z" fill="#051B30"/>
<path d="M86.2995 612.833C84.8913 614.04 84.0866 614.643 83.4832 615.046L85.696 617.46C85.696 615.851 85.8971 614.442 86.2995 612.833Z" fill="#051B30"/>
<path d="M86.7019 617.862C86.7019 618.064 86.7019 618.466 86.7019 618.667L87.5066 619.472C89.317 618.868 91.1275 618.667 92.938 618.868L87.3054 612.43C86.9031 614.241 86.7019 616.051 86.7019 617.862Z" fill="#051B30"/>
<path d="M28.5656 613.838L34.1982 607.601C33.7958 606.997 33.3935 606.393 33.1923 605.79C32.79 604.985 32.5888 603.979 32.1865 602.973L25.3469 610.619C25.5481 611.021 25.9504 611.222 26.1516 611.625C26.9562 612.631 27.7609 613.235 28.5656 613.838Z" fill="#051B30"/>
<path d="M69.4016 599.15L71.6144 601.766C73.2237 600.961 75.0342 600.76 76.8447 600.76L72.6202 595.931C71.8156 597.138 70.8098 598.144 69.4016 599.15Z" fill="#051B30"/>
<path d="M39.8306 601.363L42.2446 598.748C41.0376 597.742 40.0318 596.736 39.0259 595.327L34.198 600.559C36.2096 600.559 38.0201 600.76 39.8306 601.363Z" fill="#051B30"/>
<path d="M42.6473 597.943L55.5219 583.456L68.5975 598.345C69.8045 597.541 71.0115 596.333 71.8162 595.126L55.5219 576.615L39.6299 594.523C40.4345 595.931 41.4404 597.138 42.6473 597.943Z" fill="#051B30"/>
<path d="M88.3108 620.478L92.1329 624.905H96.1562C96.1562 624.502 96.1562 623.899 96.1562 623.496C96.1562 623.094 96.1562 622.893 96.1562 622.49L94.1445 620.277C92.1329 619.673 90.3224 619.875 88.3108 620.478Z" fill="#051B30"/>
<path d="M72.4192 602.37L76.8448 607.199C77.2471 606.595 77.6495 606.193 77.8506 605.589C78.253 604.583 78.6553 603.577 78.8564 602.571L78.0518 601.565C76.0401 601.565 74.2297 601.766 72.4192 602.37Z" fill="#051B30"/>
<path d="M82.8797 614.241C84.0867 613.436 85.2937 612.43 86.2995 611.223L79.661 603.778C79.2587 605.388 78.4541 606.997 77.4482 608.205L82.8797 614.241Z" fill="#051B30"/>
<path d="M39.0259 602.168C38.2212 601.967 37.4166 601.766 36.4108 601.565C35.4049 601.364 34.3991 601.364 33.1921 601.766C33.3933 603.577 33.9968 605.187 35.0026 606.595L39.0259 602.168Z" fill="#051B30"/>
<path d="M55.5212 569.774L15.4895 614.844C15.0871 617.259 15.0872 619.673 14.886 622.289L16.6965 620.277L17.9034 619.07L24.1395 612.027L25.3465 610.82L32.1861 603.174L33.1919 602.168L34.1978 600.559L38.8245 595.327L39.6292 594.522L55.5212 576.615L71.8155 595.126L72.6201 595.931L76.8446 600.76L77.8504 601.766L78.655 602.772L79.4597 603.778L86.0981 611.223L87.3051 612.631L92.9377 619.07L93.9435 620.277L95.9552 622.49C95.9552 619.875 95.754 617.46 95.3517 615.046L55.5212 569.774Z" fill="#051B30"/>
<path d="M23.7371 619.472L25.1452 617.862C25.3464 615.85 24.9441 613.838 24.1394 612.027L17.9033 619.07C19.915 618.667 21.9266 618.868 23.7371 619.472Z" fill="#051B30"/>
<path d="M15.0874 624.905H19.1107L23.134 620.478C21.1223 619.875 19.1107 619.875 17.099 620.478L15.2886 622.49C15.2886 622.893 15.2886 623.094 15.2886 623.496C15.0874 623.899 15.0874 624.301 15.0874 624.905Z" fill="#051B30"/>
<path d="M45.0605 725.911C45.0605 726.113 44.8594 726.113 44.8594 726.314H67.1886C67.1886 726.113 66.9874 726.113 66.9874 725.911H45.0605Z" fill="#051B30"/>
<path d="M85.696 725.911H78.6553C78.6553 725.911 78.6553 726.113 78.8564 726.113V726.314H85.2937C85.4949 726.113 85.4949 725.911 85.696 725.911Z" fill="#051B30"/>
<path d="M26.3525 725.911C26.5537 726.113 26.5537 726.113 26.7549 726.314H33.1921C33.1921 726.113 33.3933 726.113 33.3933 725.911H26.3525Z" fill="#051B30"/>
<path d="M34.3992 725.911C34.3992 726.113 34.198 726.113 34.198 726.314H43.6527C43.6527 726.113 43.8539 726.113 43.8539 725.911H34.3992Z" fill="#051B30"/>
<path d="M86.2992 726.917C86.2992 726.716 86.2992 726.515 86.2992 726.314H85.4945H79.0573H77.8503H68.3956H67.1886H44.8593H43.8535H34.1976H32.9907H26.5534H24.9441C24.9441 726.515 24.9441 726.716 24.9441 726.917C24.9441 728.326 24.9441 729.533 25.1453 730.942H86.098C86.098 729.533 86.2992 728.326 86.2992 726.917Z" fill="#051B30"/>
<path d="M77.4479 725.911H67.9932C67.9932 726.113 68.1943 726.113 68.1943 726.314H77.649V726.113C77.649 725.911 77.6491 725.911 77.4479 725.911Z" fill="#051B30"/>
<path d="M19.1107 628.527C20.9212 627.722 22.5305 626.313 23.7375 624.704H22.5305C21.7258 625.71 20.72 626.514 19.513 627.319C18.5072 627.923 17.3002 628.325 16.0932 628.325L15.2886 629.331C16.2944 629.533 17.5014 629.331 19.1107 628.527Z" fill="#051B30"/>
<path d="M92.1329 627.118C91.1271 626.515 90.3224 625.71 89.5178 624.905H88.3108C89.3166 626.313 90.7248 627.521 92.3341 628.326C93.5411 628.929 94.9492 629.332 96.1562 629.332L95.1504 628.124C94.9492 628.124 94.5469 627.923 94.3457 627.923C93.5411 627.722 92.9376 627.521 92.1329 627.118Z" fill="#051B30"/>
<path d="M92.7369 646.233C90.1218 647.641 88.1102 649.654 86.9032 652.269C86.702 652.672 86.702 652.873 86.5008 653.275C86.0985 653.074 85.6962 652.873 85.2939 652.672C84.288 652.068 83.4834 651.464 82.4776 650.861C82.2764 650.66 82.0752 650.458 82.0752 650.056C82.0752 648.446 82.0752 647.038 81.8741 645.428C81.8741 645.428 81.8741 645.227 81.8741 645.026C82.0752 645.026 82.2764 645.026 82.4776 645.026C85.495 645.428 88.1102 644.825 90.7253 643.215C92.5358 642.209 93.7428 640.599 94.1451 638.587C94.7486 635.368 93.5416 632.551 90.7253 630.74C88.3113 629.13 85.495 628.728 82.6787 628.929C82.4776 628.929 82.2764 628.929 81.8741 628.929C81.8741 628.728 81.6729 628.325 81.6729 628.124C81.6729 626.917 81.6729 625.71 81.8741 624.301H80.8683C80.8683 625.71 80.8683 627.118 80.8683 628.527C80.8683 628.728 80.8683 628.929 80.8683 629.13C78.4543 629.935 76.4426 631.142 74.6322 632.953C75.2356 630.539 75.2356 628.124 74.8333 625.71C75.638 625.307 76.2415 624.704 77.0461 624.301H74.8333C74.6322 624.301 74.6322 624.301 74.431 624.503C74.431 624.503 74.431 624.503 74.431 624.301H73.224C73.224 624.503 73.4252 624.704 73.4252 624.905C70.81 625.911 68.3961 626.112 65.7809 625.307C65.1774 627.923 63.5681 630.136 61.5565 631.746C61.3553 631.545 61.1541 631.344 60.953 631.142C59.3437 628.929 58.539 626.716 58.539 624.1H57.5332C57.5332 626.716 58.3379 629.332 59.9472 631.545C60.1483 631.746 60.3495 631.947 60.5507 632.35C60.3495 632.551 60.1483 632.752 59.9472 632.752C58.7402 633.356 57.5332 633.959 56.5274 634.563C56.3262 634.764 55.9239 634.764 55.7227 634.563C54.1134 633.959 52.7053 633.154 51.2971 632.148C51.4983 631.746 51.6994 631.545 51.9006 631.344C53.5099 629.13 54.3146 626.515 54.3146 623.899H53.3087C53.3087 626.515 52.3029 629.13 50.6936 631.344C50.6936 631.344 50.4924 631.344 50.4924 631.545C48.4808 629.935 46.8715 627.722 46.268 625.106C43.6529 625.911 41.0377 625.71 38.6238 624.704C38.6238 624.503 38.8249 624.301 38.8249 624.1H37.6179H37.4168C37.4168 624.1 37.4168 624.1 37.2156 624.1H35.204C35.6063 624.301 36.2098 624.704 36.6121 624.905C36.8133 625.106 37.0144 625.106 37.2156 625.307C36.6121 627.722 36.8133 630.136 37.4168 632.551C35.6063 630.941 33.5946 629.533 31.1807 628.728C31.1807 627.118 31.1807 625.71 31.1807 624.1V623.899H30.1749C30.1749 625.307 30.1749 626.716 30.376 627.923C30.376 628.124 30.376 628.124 30.1749 628.326C29.9737 628.326 29.7725 628.326 29.3702 628.326C26.3527 628.124 23.7376 628.527 21.1225 630.136C19.5132 631.142 18.105 632.551 17.9038 634.362C17.3003 637.983 17.9038 640.398 21.3236 642.611C23.7376 644.221 26.5539 644.825 29.5714 644.422C29.7725 644.422 29.9737 644.422 30.1749 644.422C30.1749 644.422 30.1749 644.422 30.376 644.422C30.376 644.825 30.5772 645.428 30.376 645.831C30.376 646.837 30.376 648.044 30.1749 649.05C30.1749 649.251 29.9737 649.654 29.7725 649.855C28.5655 650.861 27.1574 651.666 25.5481 652.47C25.3469 652.068 25.3469 651.867 25.1458 651.464C23.9388 648.849 22.1283 646.837 19.5132 645.428C17.9038 644.623 16.2945 644.02 14.6852 644.623C13.6794 644.825 12.8747 645.227 12.2712 645.629L12.4724 646.635L12.6736 646.434C13.8806 645.831 15.0875 645.227 16.2945 645.428C17.3003 645.629 18.105 645.831 18.9097 646.233C21.3236 647.641 23.1341 649.654 24.1399 652.269C24.1399 652.47 24.1399 652.47 24.1399 652.672C21.9271 653.678 20.1166 653.879 16.4957 653.275C16.0934 654.483 15.691 655.69 14.8864 656.897C14.6852 657.098 14.484 657.299 14.484 657.501L14.6852 658.909C15.691 657.702 16.6969 656.293 17.0992 654.684C20.9213 655.086 21.1225 654.885 24.3411 654.08C24.3411 654.281 24.5423 654.483 24.5423 654.684C25.1458 657.903 24.3411 660.921 22.7318 663.939C22.5306 664.141 22.3295 664.342 22.1283 664.342C19.7143 664.342 17.3003 663.738 15.2887 662.531L15.4899 663.939C16.2945 664.342 17.3003 664.744 18.105 664.945C17.3003 665.147 16.6969 665.549 15.8922 665.75L16.0934 666.756C16.4957 666.555 17.0992 666.354 17.7027 666.153C19.1108 665.75 20.519 665.549 21.9271 665.549C22.3295 665.549 22.5306 665.549 22.7318 665.951C24.3411 668.97 25.1458 671.988 24.5423 675.207C24.5423 675.408 24.3411 675.609 24.3411 675.811C22.3295 675.006 20.1166 674.805 17.9038 675.006L18.105 676.012C20.1166 675.811 22.1283 676.012 24.1399 676.817C23.7376 677.621 23.3353 678.426 22.9329 679.231C22.1283 680.64 20.9213 681.847 19.7143 682.652L19.9155 683.658C22.1283 682.249 23.5364 680.438 24.7434 678.024C24.9446 677.823 24.9446 677.42 25.1458 677.219C25.3469 677.219 25.5481 677.42 25.7492 677.42C26.9562 678.225 27.9621 678.829 29.169 679.634C29.3702 679.835 29.5714 680.036 29.5714 680.237C29.7725 681.847 29.9737 683.457 29.5714 685.267C29.3702 685.267 29.169 685.267 28.7667 685.267C25.7492 685.066 23.1341 685.469 20.519 687.078C20.519 687.078 20.3178 687.078 20.3178 687.28L20.519 688.286C22.1283 687.078 23.7376 686.676 25.7492 686.273C26.9562 686.072 28.1632 686.072 29.3702 686.475C28.9679 689.09 27.9621 691.505 25.9504 693.316C28.1632 696.133 29.169 698.346 29.169 700.358C28.7667 700.358 28.1632 700.559 27.7609 700.559C25.9504 700.559 24.3411 700.358 22.9329 699.754L23.1341 700.962C24.7434 701.565 26.3527 701.565 28.1632 701.565C28.5655 701.565 28.7667 701.565 29.169 701.565H29.3702C29.3702 701.766 29.5714 702.169 29.5714 702.571C29.5714 703.779 29.5714 704.986 29.3702 706.394C29.3702 706.596 29.169 706.998 28.9679 707.199C28.3644 707.803 25.9504 709.211 24.7434 709.614L24.9446 710.821C25.3469 710.62 25.7492 710.418 26.1516 710.217C27.3586 709.412 28.3644 708.809 29.5714 708.004C30.1749 707.602 30.376 707.199 30.376 706.595C30.376 704.986 30.376 703.577 30.5772 701.968C30.5772 701.766 30.5772 701.565 30.5772 701.364C32.9912 700.76 35.0028 699.352 36.8133 697.541C36.2098 699.956 36.2098 702.37 36.6121 704.785C35.0028 705.791 33.5946 706.797 32.1865 707.602C31.7842 708.004 31.3818 708.406 31.3818 708.809C31.3818 710.418 31.3818 711.827 31.1807 713.437C31.1807 713.638 31.1807 713.839 31.1807 714.241C29.3702 714.845 27.9621 715.65 26.5539 716.656L26.7551 717.863C27.9621 716.656 29.5714 715.851 31.3818 715.247C31.7842 717.26 32.3877 719.07 33.5947 720.68H34.8016C33.5946 719.07 32.79 717.058 32.3877 714.845C33.7958 714.443 35.0028 714.443 36.4109 714.845C38.2214 715.046 39.8307 715.65 41.2389 716.857C42.4459 717.662 43.4517 718.668 43.6529 720.076C43.6529 720.278 43.6529 720.479 43.6529 720.68H44.6587C44.2564 718.668 43.0494 716.857 41.0377 715.449C38.6238 714.04 36.0086 713.437 33.1923 713.638C32.79 713.638 32.5888 713.638 32.1865 713.638C32.1865 712.833 32.1865 712.028 32.1865 711.223C32.1865 710.418 32.1865 709.614 32.3877 708.809C32.3877 708.608 32.5888 708.205 32.5888 708.004C33.7958 706.998 35.204 706.193 36.8133 705.388C37.0144 705.791 37.0144 705.992 37.2156 706.394C38.4226 709.01 40.2331 711.022 42.8482 712.431C44.0552 713.235 45.4633 713.437 46.8715 713.437C48.8831 713.437 52.5041 711.223 53.1076 708.809C53.5099 707.199 53.7111 705.589 53.5099 703.779C53.1076 701.565 52.3029 699.553 51.0959 697.742C50.8948 697.541 50.8948 697.541 50.6936 697.139C51.0959 696.938 51.4983 696.535 51.9006 696.334C52.9064 695.73 53.7111 695.328 54.7169 694.925C54.9181 694.724 55.3204 694.724 55.5216 694.925C57.1309 695.529 58.539 696.334 59.9472 697.34C59.746 697.742 59.5448 697.944 59.3437 698.145C57.5332 700.76 56.7285 703.577 56.9297 706.595C57.1309 708.205 57.5332 709.614 58.539 710.821C60.953 713.235 63.7693 714.241 66.9879 712.833C69.8042 711.425 71.8159 709.412 73.224 706.595C73.4252 706.394 73.4252 705.992 73.6263 705.791C73.6263 705.791 73.6263 705.791 73.8275 705.589C74.2298 705.791 74.431 705.791 74.8333 705.992C75.8391 706.595 76.845 707.199 77.6496 707.803C77.8508 708.004 78.2531 708.205 78.2531 708.608C78.2531 710.016 78.4543 711.626 78.4543 713.034C78.4543 713.235 78.4543 713.235 78.2531 713.437C77.8508 713.437 77.6496 713.437 77.2473 713.437C74.431 713.235 71.8159 713.839 69.2007 715.247C67.5914 716.253 66.1833 717.662 65.7809 719.875C65.7809 720.076 65.7809 720.278 65.7809 720.479H66.7868C66.9879 719.473 67.1891 718.668 67.7926 718.064C68.1949 717.461 68.7984 716.857 69.4019 716.455C71.8159 714.644 74.431 714.04 77.4485 714.443C77.6496 714.443 77.8508 714.443 78.2531 714.644C77.8508 716.857 77.2473 718.869 75.8391 720.479H77.0461C78.052 718.869 78.8566 717.058 79.0578 715.046C80.4659 715.247 81.8741 716.052 83.0811 717.058L83.2822 716.052C83.0811 715.851 82.6787 715.65 82.4776 715.449C81.4717 714.845 80.2648 714.443 79.0578 713.839C79.0578 713.638 79.0578 713.437 79.0578 713.034C79.0578 711.424 79.0578 710.016 78.8566 708.406C78.8566 708.004 78.6554 707.602 78.2531 707.199C76.845 706.193 75.2356 705.388 73.8275 704.382C73.8275 703.376 74.0287 701.968 74.0287 700.76C74.0287 699.553 73.8275 698.346 73.6263 697.139C74.6322 697.944 75.4368 698.748 76.4426 699.352C77.4485 699.956 78.6554 700.358 79.6613 700.962C79.6613 701.163 79.6613 701.364 79.6613 701.767C79.6613 703.376 79.6613 704.785 79.8624 706.394C79.8624 706.998 80.0636 707.4 80.4659 707.602C81.6729 708.406 82.8799 709.211 84.288 710.016C84.288 710.016 84.288 710.016 84.4892 710.016L84.6904 709.01C84.0869 708.608 83.4834 708.406 82.8799 708.004C80.8683 706.797 80.8682 706.797 80.6671 704.181C80.6671 703.577 80.6671 702.773 80.6671 702.169C80.6671 701.968 80.6671 701.767 80.8683 701.364C81.2706 701.364 81.6729 701.364 82.0752 701.364C83.4834 701.565 84.8915 701.364 86.2997 700.962L86.5008 699.754C85.8974 699.956 85.495 699.956 84.8915 700.157C83.4834 700.358 82.2764 700.358 80.8683 700.157C81.2706 697.541 82.2764 695.127 84.288 693.115C82.2764 691.102 81.2706 688.889 80.8683 686.273C81.4717 685.871 82.0752 686.072 82.6787 685.871C84.8915 685.871 86.9032 686.273 88.7137 687.481C88.7137 687.481 88.9148 687.481 88.9148 687.682L89.116 686.676C86.702 685.267 84.0869 684.865 81.4717 685.066C81.2706 685.066 81.0694 685.066 80.6671 685.066C80.6671 684.865 80.4659 684.463 80.4659 684.261C80.4659 682.853 80.4659 681.646 80.6671 680.237C80.6671 680.036 80.8682 679.634 81.0694 679.634C82.2764 678.628 83.6846 677.823 85.2939 677.018C85.495 677.219 85.495 677.621 85.6962 677.823C86.702 680.036 88.1102 681.847 89.9206 683.054L90.1218 682.048C89.9206 681.847 89.7195 681.646 89.5183 681.444C88.1102 680.036 87.1043 678.628 86.2997 676.615C88.1102 676.012 89.7195 675.609 91.53 675.609L91.7311 674.603C89.7195 674.402 89.3172 674.603 85.8974 675.408C85.6962 674.603 85.6962 674 85.6962 673.396C85.495 670.579 86.2997 667.964 87.5067 665.549C87.7078 665.348 87.909 665.147 88.1102 665.147C89.9206 665.147 91.7311 665.549 93.3404 666.153L93.5416 665.147C92.9381 664.945 92.5358 664.744 91.9323 664.543C92.5358 664.342 93.1393 664.141 93.7428 663.939L93.9439 662.732C92.1335 663.537 90.1218 663.939 87.909 664.141C87.7078 664.141 87.3055 664.141 87.3055 663.738C85.6962 660.72 84.8915 657.702 85.495 654.281C85.495 654.08 85.495 654.08 85.6962 653.879C88.1102 654.684 90.323 655.086 92.7369 654.483C93.3404 655.69 93.9439 656.696 94.5474 657.702C94.5474 657.903 94.7486 657.903 94.7486 658.104L94.9497 656.696C94.3463 655.69 93.7428 654.483 93.5416 653.275C90.9265 654.08 88.3113 653.879 85.8974 652.873C86.0985 652.47 86.0985 652.269 86.0985 652.068C87.1043 649.654 88.7137 647.843 90.9265 646.635C92.1335 645.831 93.3404 645.428 94.9497 645.428C95.1509 645.428 95.3521 645.428 95.5532 645.428C96.1567 645.629 96.7602 645.831 97.3637 646.233L97.5649 645.227C97.1626 645.227 95.1509 645.026 92.7369 646.233ZM85.2939 654.08C85.495 654.281 85.6962 654.281 85.8974 654.483C85.2939 656.897 85.495 659.312 86.0985 661.927C85.0927 661.122 84.0869 660.318 83.0811 659.714C82.0752 659.11 80.8682 658.708 79.6613 657.903C79.6613 657.702 79.6613 657.299 79.6613 657.098C79.6613 655.489 79.4601 654.08 79.4601 652.47C79.4601 652.068 79.2589 651.666 78.8566 651.464C77.6496 650.66 76.4426 649.855 75.0345 649.05C74.8333 648.849 74.431 648.849 74.2298 648.648C74.8333 646.233 74.6322 643.819 74.0287 641.203C75.0345 642.008 76.0403 642.812 77.0461 643.416C78.052 644.02 79.2589 644.422 80.4659 645.026C80.4659 645.227 80.4659 645.428 80.4659 645.629C80.4659 647.239 80.4659 648.648 80.6671 650.257C80.6671 650.861 80.8683 651.263 81.4717 651.666C82.8799 652.47 84.0869 653.275 85.2939 654.08ZM78.2531 657.702C75.2357 657.501 72.6205 657.903 70.0054 659.513C68.1949 660.519 66.9879 662.128 66.5856 664.141C65.7809 667.561 67.1891 670.378 70.0054 672.189C72.6205 673.799 75.2357 674.402 78.2531 674C78.4543 674 78.4543 674 78.6554 674H78.8566C78.8566 674.402 79.0578 675.006 78.8566 675.609C78.8566 676.615 78.8566 677.622 78.6554 678.628C78.6554 678.829 78.4543 679.231 78.2531 679.432C77.0461 680.438 75.638 681.243 74.0287 682.048C73.8275 681.646 73.8275 681.444 73.6263 681.042C72.4193 678.426 70.6089 676.414 67.9937 675.006C66.3844 674.201 64.5739 673.597 62.7635 674.201C59.3437 675.408 57.332 677.018 57.1309 681.243C56.9297 684.261 57.9355 686.877 59.5448 689.493C59.746 689.694 59.9472 689.895 60.1483 690.298C59.746 690.499 59.5448 690.7 59.3437 690.901C58.3379 691.505 57.1309 692.108 56.125 692.511C55.9239 692.712 55.5216 692.712 55.3204 692.511C53.7111 691.907 52.3029 691.102 50.8948 690.096C51.0959 689.694 51.2971 689.493 51.4983 689.292C53.3087 686.676 54.1134 683.859 53.9122 680.841C53.7111 679.231 53.3087 677.823 52.3029 676.817C49.889 674.402 47.0727 673.195 43.854 674.805C41.0377 676.012 39.0261 678.225 37.6179 681.042C37.4168 681.243 37.4168 681.646 37.2156 682.048C37.2156 682.048 37.2156 682.048 37.0144 682.249C36.8133 682.249 36.6121 682.048 36.4109 682.048C35.4051 681.444 34.1981 680.64 33.1923 680.036C32.9912 679.835 32.5888 679.634 32.5888 679.432C32.3877 677.823 32.1865 676.213 32.5888 674.402C32.79 674.402 32.9912 674.402 33.3935 674.402C36.4109 674.805 39.0261 674.201 41.6412 672.591C43.4517 671.585 44.6587 669.976 45.061 667.964C45.6645 664.543 44.4575 661.525 41.6412 659.915C39.0261 658.306 36.4109 657.903 33.3935 658.104C33.1923 658.104 32.9912 658.104 32.79 658.104C32.79 658.104 32.79 658.104 32.5888 657.903C32.5888 657.501 32.3877 657.098 32.3877 656.495C32.3877 655.489 32.3877 654.281 32.5888 653.275C32.5888 653.074 32.79 652.672 32.9912 652.47C33.5946 651.867 36.2098 650.257 37.2156 649.855C37.4168 650.056 37.4168 650.458 37.6179 650.66C38.8249 653.275 40.6354 655.287 43.2505 656.696C45.061 657.702 46.8715 658.104 48.682 657.501C51.9006 656.293 53.9122 654.684 54.1134 650.257C54.1134 647.44 53.3087 644.825 51.6994 642.41C51.4983 642.209 51.2971 642.008 51.2971 641.605C51.4983 641.404 51.6994 641.203 51.9006 641.203C53.1076 640.599 54.3146 639.996 55.3204 639.392C55.5216 639.191 55.9239 639.191 56.125 639.392C57.7344 639.996 59.1425 640.8 60.5507 641.806C60.3495 642.209 60.1483 642.41 59.9472 642.611C58.1367 645.227 57.332 648.044 57.5332 651.062C57.7344 652.672 58.1367 654.08 59.1425 655.086C61.5565 657.501 64.3728 658.708 67.5914 657.098C70.4077 655.891 72.6205 653.678 73.8275 650.66C74.0287 650.458 74.0287 650.056 74.2298 649.654C75.8391 650.458 77.2473 651.263 78.4543 652.269C78.6554 652.269 78.6554 652.47 78.6554 652.672C78.8566 654.281 79.0578 655.891 78.6554 657.702C78.6554 657.702 78.4543 657.702 78.2531 657.702ZM78.8566 658.909C78.4543 661.525 77.4485 663.939 75.4368 665.75C77.4485 667.762 78.4543 669.976 78.8566 672.793C78.4543 672.793 78.2531 672.994 78.052 672.994C75.638 673.195 73.4252 672.793 71.2124 671.786C70.2065 671.183 69.4019 670.579 68.5972 669.573C67.1891 667.964 67.1891 663.738 68.5972 662.33C69.2007 661.525 70.0054 660.921 70.81 660.318C73.224 658.909 75.8391 658.507 78.4543 658.708H78.6554C78.6554 658.708 78.6554 658.909 78.8566 658.909ZM66.3844 684.06C68.9996 684.463 71.2124 684.261 73.6263 683.255C73.8275 684.06 73.8275 684.664 73.8275 685.267C74.0287 688.084 73.224 690.7 72.017 693.115C71.8159 693.316 71.6147 693.517 71.4135 693.517C67.9937 693.517 64.9763 692.511 62.3611 690.298L62.16 690.096C62.16 690.096 62.16 690.096 62.16 689.895C64.1716 688.487 65.5798 686.676 66.3844 684.06ZM61.5565 689.292C61.3553 689.292 61.3553 689.292 61.3553 689.09C59.3437 686.475 58.3379 683.457 58.7402 680.036C58.9413 678.225 59.9472 676.817 61.5565 675.811C62.7635 675.207 63.9705 674.603 65.3786 674.805C66.3844 675.006 67.1891 675.207 68.1949 675.811C70.6089 677.219 72.4193 679.231 73.4252 681.847C73.4252 682.048 73.4252 682.048 73.6263 682.249C71.0112 683.255 68.5972 683.457 65.9821 682.652C64.9763 685.469 63.5681 687.682 61.5565 689.292ZM46.268 682.853C43.6529 683.658 41.0377 683.457 38.6238 682.451C38.6238 682.249 38.8249 681.847 38.8249 681.646C39.8307 679.231 41.4401 677.42 43.854 676.012C45.061 675.207 46.268 674.805 47.6761 675.006C47.8773 675.006 48.0785 675.006 48.2796 675.006C50.8948 675.811 52.9064 677.219 53.3087 680.237C53.5099 681.646 53.5099 682.853 53.1076 684.261C52.7053 685.871 52.1018 687.481 51.0959 688.688C50.8948 688.889 50.6936 689.09 50.4924 689.493C48.4808 687.682 46.8715 685.67 46.268 682.853ZM49.6878 690.096C49.4866 690.298 49.2855 690.499 49.0843 690.7C46.4692 692.712 43.6529 693.517 40.4342 693.718C40.2331 693.718 39.8307 693.718 39.8307 693.316C38.2214 690.298 37.4168 687.279 38.0203 683.859C38.0203 683.658 38.0203 683.658 38.2214 683.255C40.6354 684.06 43.0494 684.463 45.4633 683.859C46.268 686.676 47.8773 688.487 49.6878 690.096ZM44.4575 665.951C44.6587 667.561 43.854 668.97 42.8482 670.177C41.6412 671.384 40.0319 672.189 38.4226 672.591C37.0144 672.994 35.6063 672.994 34.1981 672.994C33.997 672.994 33.5946 672.994 33.1923 672.793C33.5946 669.976 34.6005 667.762 36.6121 665.75C34.6005 663.738 33.5946 661.525 33.1923 658.708C33.7958 658.708 34.3993 658.507 35.0028 658.507C37.2156 658.507 39.2272 658.909 41.0377 659.915C42.0435 660.519 42.8482 661.122 43.6529 662.128C44.2564 663.135 44.6587 664.141 44.6587 665.348C44.4575 665.75 44.4575 665.951 44.4575 665.951ZM45.4633 647.44C43.0494 647.038 40.6354 647.239 38.2214 648.044C38.2214 647.641 38.0203 647.44 38.0203 647.239C37.4168 644.02 38.2214 641.002 39.8307 638.185C40.0319 637.782 40.2331 637.782 40.4342 637.782C43.2505 637.983 46.0668 638.587 48.4808 640.197C48.8831 640.398 49.2855 640.8 49.889 641.203C47.8773 643.215 46.268 645.026 45.4633 647.44ZM50.4924 642.41C50.6936 642.41 50.6936 642.611 50.8948 642.611C52.9064 645.227 53.9122 648.245 53.3087 651.666C53.1076 653.477 52.1018 655.086 50.4924 655.891C50.0901 656.092 49.6878 656.293 49.4866 656.495C48.2796 657.098 46.8715 657.098 45.6645 656.696C44.2564 656.293 43.0494 655.489 41.8424 654.483C40.4342 653.074 39.4284 651.666 38.6238 649.654C41.0377 648.648 43.6529 648.446 46.268 649.05C46.8715 646.032 48.4808 644.02 50.4924 642.41ZM65.7809 648.849C68.3961 648.044 71.0112 648.245 73.6263 649.251C73.4252 649.855 73.0228 650.458 72.8217 651.062C71.8159 652.873 70.4077 654.483 68.5972 655.489C67.3902 656.293 65.9821 656.696 64.5739 656.696C64.3728 656.696 64.1716 656.696 64.1716 656.696C61.7576 656.092 59.3437 654.684 58.9413 651.666C58.3379 648.245 59.3437 645.227 61.3553 642.41C61.3553 642.41 61.5565 642.41 61.5565 642.209C63.5681 644.02 64.9763 646.032 65.7809 648.849ZM62.16 641.404C62.3611 641.203 62.7635 640.8 62.9646 640.599C65.1774 638.99 67.5914 637.983 70.2065 637.782C72.017 637.581 72.017 637.581 72.8217 639.392C73.8275 641.806 74.431 644.422 74.0287 647.239C74.0287 647.44 74.0287 647.641 73.8275 647.843C73.8275 647.843 73.8275 648.044 73.6263 648.044C69.4019 647.038 69.4019 647.038 66.3844 647.44C65.5798 645.026 64.1716 643.215 62.16 641.404ZM83.8857 630.136C86.0985 630.136 87.909 630.539 89.9206 631.545C90.9265 632.148 91.7311 632.752 92.5358 633.758C93.1393 634.764 93.5416 635.569 93.3404 636.776C93.3404 636.977 93.3404 636.977 93.3404 637.179C93.5416 639.593 92.3346 641.203 90.7253 642.41C88.5125 643.819 86.0985 644.422 83.6845 644.221C83.2822 644.221 82.6787 644.221 82.0752 644.02C82.4776 641.203 83.4834 638.99 85.495 636.977C83.4834 635.167 82.4776 632.752 82.0752 629.935C82.6787 630.338 83.2822 630.136 83.8857 630.136ZM80.8683 630.74C81.2706 633.154 82.2764 635.569 83.8857 637.38C82.2764 639.392 81.2706 641.605 80.8683 644.02C77.2473 642.812 74.8333 640.398 73.0228 637.38C74.8333 634.161 77.2473 631.746 80.8683 630.74ZM66.3844 627.118C68.7984 627.521 71.2124 627.319 73.6263 626.515C74.0287 627.722 74.0287 628.929 74.0287 630.136C73.8275 632.35 73.224 634.362 72.2182 636.173C72.017 636.575 71.8159 636.776 71.4135 636.776C68.1949 636.575 65.3786 635.77 62.7635 633.758C62.5623 633.557 62.3611 633.356 62.16 633.154C64.1716 631.545 65.5798 629.533 66.3844 627.118ZM50.4924 633.959C50.6936 634.161 50.8948 634.161 51.0959 634.362C52.5041 635.167 53.7111 635.77 55.1192 636.575C55.5216 636.776 56.125 636.776 56.5274 636.575C57.9355 635.77 59.1425 635.167 60.5507 634.362C60.7518 634.161 60.953 634.161 61.1542 633.959C62.9646 635.569 64.9763 636.776 67.5914 637.38C65.1774 637.983 62.9646 639.191 61.3553 640.8C61.1542 640.599 60.953 640.599 60.7518 640.398C59.3437 639.593 58.1367 638.99 56.7285 638.185C56.3262 637.983 55.7227 637.983 55.3204 638.185C53.7111 638.99 52.3029 639.794 50.4924 640.8C48.8831 639.191 46.6703 638.185 44.2564 637.38C46.6703 636.575 48.8831 635.569 50.4924 633.959ZM38.2214 626.917C38.2214 626.716 38.2214 626.716 38.4226 626.515C40.8366 627.319 43.0494 627.722 45.6645 627.118C46.4692 629.533 47.8773 631.545 49.889 633.154C49.6878 633.356 49.2855 633.758 49.0843 633.959C46.6703 635.971 43.6529 636.776 40.6354 636.776C40.4342 636.776 40.0319 636.776 40.0319 636.374C38.2214 633.356 37.4168 630.338 38.2214 626.917ZM29.3702 644.422C26.7551 644.623 24.5423 644.221 22.1283 643.014C21.1225 642.41 20.3178 641.806 19.5132 640.8C18.9097 639.794 18.5073 638.788 18.5073 637.581C18.5073 637.38 18.5073 637.179 18.5073 637.179C18.3062 635.368 19.1108 633.959 20.519 632.752C22.1283 631.344 24.1399 630.539 26.3527 630.338C27.5597 630.136 28.7667 630.136 29.9737 630.539C29.5714 633.154 28.5655 635.569 26.5539 637.38C28.3644 639.191 29.5714 641.605 29.9737 644.221C29.7725 644.221 29.5714 644.422 29.3702 644.422ZM29.9737 640.398C29.5714 639.392 28.7667 638.185 28.1632 637.179C28.7667 636.173 29.3702 635.167 29.9737 634.161C30.376 633.154 30.7784 631.947 31.1807 630.74C33.5946 630.941 37.2156 633.959 39.0261 637.38C37.6179 640.197 34.3993 643.416 31.3818 644.02C30.7784 642.812 30.5772 641.605 29.9737 640.398ZM25.9504 654.483C26.1516 654.281 26.3527 654.281 26.7551 654.08C27.9621 653.275 29.169 652.47 30.5772 651.666C31.1807 651.263 31.3818 650.861 31.3818 650.257C31.3818 648.648 31.3818 647.239 31.3818 645.629C31.3818 645.428 31.3818 645.227 31.3818 645.026C33.7958 644.221 35.8075 643.014 37.6179 641.203C37.0144 643.617 37.0144 646.032 37.4168 648.446C37.2156 648.648 36.8133 648.648 36.6121 648.849C35.4051 649.654 34.1981 650.458 32.9912 651.062C32.3877 651.464 32.1865 651.867 32.1865 652.47C32.1865 654.08 32.1865 655.489 32.1865 657.098C32.1865 657.299 32.1865 657.501 32.1865 657.702C29.7725 658.507 27.7609 659.714 25.9504 661.525C26.3527 659.312 26.3527 657.098 25.9504 654.483ZM24.1399 665.75C25.9504 662.732 28.3644 660.116 31.9853 659.11C32.3877 661.726 33.3935 663.939 35.0028 665.951C33.3935 667.964 32.3877 670.177 31.9853 672.591C29.3702 672.189 25.9504 669.171 24.1399 665.75ZM26.7551 677.622C26.5539 677.42 26.3527 677.42 25.9504 677.219C26.3527 674.805 26.3527 672.39 25.7492 669.774C26.7551 670.579 27.7609 671.384 28.7667 671.988C29.7725 672.591 30.9795 672.994 32.1865 673.597C32.1865 673.597 32.1865 674 32.1865 674.201C32.1865 675.811 32.1865 677.219 32.3877 678.829C32.3877 679.432 32.5888 679.835 33.1923 680.237C34.6005 681.243 36.0086 682.048 37.6179 683.054C37.2156 685.267 37.2156 687.682 37.8191 690.298C37.2156 689.694 36.6121 689.292 36.0086 688.688C35.4051 688.286 34.6005 687.682 33.997 687.28C33.1923 686.877 32.5888 686.676 31.7842 686.273C31.7842 686.072 31.7842 685.67 31.7842 685.469C31.7842 683.859 31.7842 682.45 31.583 680.841C31.583 680.237 31.3818 679.835 30.9795 679.634C29.169 679.231 27.9621 678.426 26.7551 677.622ZM31.1807 701.163C30.7784 699.956 30.5772 698.748 29.9737 697.541C29.5714 696.535 28.7667 695.529 28.1632 694.322C29.7725 692.511 30.5772 690.298 31.1807 687.682C34.8016 688.889 37.2156 691.304 39.0261 694.322C37.2156 697.541 34.8016 699.956 31.1807 701.163ZM38.0203 701.767C38.2214 699.553 38.8249 697.541 39.8307 695.529C40.0319 695.127 40.2331 694.925 40.6354 694.925C43.854 695.127 46.8715 695.931 49.4866 697.944C49.6878 698.145 49.6878 698.145 49.889 698.346C48.0785 699.956 46.4692 701.968 45.6645 704.382C43.2505 703.98 40.8366 704.181 38.4226 705.187C38.0203 703.98 37.8191 702.974 38.0203 701.767ZM53.3087 708.406C53.1076 710.418 52.1018 711.827 50.2913 712.833C47.8773 714.443 45.6645 714.04 43.4517 712.632C41.2389 711.223 39.6296 709.211 38.6238 706.595C41.2389 705.589 43.6529 705.388 46.268 705.992C46.6703 704.382 47.2738 702.974 48.2796 701.767C48.8831 700.962 49.6878 700.358 50.2913 699.553C50.4924 699.754 50.4924 699.754 50.6936 699.754C52.7053 702.169 53.7111 705.187 53.3087 708.406ZM60.5507 697.34C59.3437 696.535 57.9355 695.931 56.7285 695.328C56.3262 695.127 55.9239 695.127 55.5216 695.328C53.9122 696.133 52.3029 696.937 50.6936 697.944C49.0843 696.334 46.8715 695.127 44.4575 694.523C46.8715 693.919 48.8831 692.712 50.6936 691.102C51.9006 691.907 53.1076 692.511 54.3146 693.115C56.5274 694.121 55.7227 694.121 57.9355 693.115C58.9413 692.712 59.9472 692.108 60.7518 691.505C60.953 691.304 61.1542 691.304 61.3553 691.102C63.1658 692.913 65.1774 693.919 67.7926 694.523C65.1774 695.127 63.1658 696.334 61.3553 698.145C60.953 697.742 60.7518 697.541 60.5507 697.34ZM73.224 706.998C72.2182 709.412 70.6089 711.425 68.1949 712.833C66.7868 713.638 65.3786 714.04 63.9704 713.839C62.16 713.437 60.7518 712.632 59.5448 711.022C58.7402 710.016 58.539 708.608 58.539 707.4C58.539 704.583 59.3437 701.968 61.1542 699.754L61.3553 699.553C63.367 701.364 64.9763 703.376 65.5798 705.992C68.1949 705.187 70.81 705.388 73.224 706.394C73.224 706.596 73.224 706.797 73.224 706.998ZM73.8275 704.785C73.8275 704.986 73.8275 704.986 73.6263 705.187C71.2124 704.382 68.9996 703.98 66.3844 704.583C65.5798 702.169 64.1716 700.157 62.16 698.547C62.3611 698.346 62.5623 698.145 62.7635 697.944C64.7751 696.334 66.9879 695.529 69.4019 695.127C70.0054 695.127 70.81 694.925 71.4135 694.925C71.6147 694.925 72.017 694.925 72.017 695.328C73.6263 698.346 74.431 701.364 73.8275 704.785ZM81.8741 691.304C82.2764 692.31 83.0811 693.316 83.6845 694.322C83.0811 695.328 82.4776 696.334 81.8741 697.541C81.4717 698.547 81.0694 699.754 80.6671 700.962C77.0461 699.754 74.8333 697.34 72.8217 694.322C74.6322 691.102 77.0461 688.688 80.6671 687.682C81.0694 688.889 81.4717 690.096 81.8741 691.304ZM85.8974 677.219C85.6962 677.219 85.495 677.42 85.2939 677.622C84.0869 678.426 82.8799 679.231 81.6729 679.835C81.0694 680.237 80.8683 680.64 80.8683 681.444C80.8683 683.054 80.8683 684.463 80.8683 686.072C80.8683 686.273 80.8683 686.475 80.8683 686.475C79.6613 687.078 78.6554 687.481 77.6496 688.084C76.6438 688.688 75.638 689.493 74.6322 690.298C75.2356 687.883 75.4368 685.469 74.8333 683.054C75.4368 682.853 75.8391 682.451 76.4426 682.249C77.4485 681.646 78.4543 681.042 79.4601 680.237C80.0636 679.835 80.2648 679.432 80.2648 678.829C80.2648 677.219 80.2648 675.811 80.4659 674.201C80.4659 674 80.4659 673.799 80.4659 673.597C82.8799 672.793 84.8915 671.585 86.702 669.774C86.5008 671.183 86.2997 672.39 86.2997 673.597C85.6962 674.603 85.8974 675.811 85.8974 677.219ZM87.909 665.75C86.0985 668.97 83.6845 671.384 80.0636 672.591C79.6613 669.976 78.6554 667.762 77.0461 665.75C78.6554 663.738 79.6613 661.525 80.0636 658.909C83.4834 660.318 85.8974 662.732 87.909 665.75Z" fill="#051B30"/>
<path d="M58.7402 623.295C58.9414 621.484 59.9472 620.076 61.7577 619.07C62.9646 618.466 64.1716 617.863 65.5798 618.064C66.5856 618.265 67.5914 618.466 68.3961 619.07C70.6089 620.478 72.2182 622.289 73.224 624.704H74.431C74.2298 624.502 74.2298 624.1 74.0287 623.899C72.8217 621.283 71.0112 619.271 68.3961 617.863C66.7868 617.058 65.1774 616.454 63.367 617.058C59.9472 618.064 57.7344 620.076 57.5332 623.899C57.5332 624.1 57.5332 624.301 57.5332 624.704H58.539C58.539 624.301 58.539 623.698 58.7402 623.295Z" fill="#051B30"/>
<path d="M38.8251 624.704C39.831 622.289 41.4403 620.478 43.8543 619.07C44.8601 618.466 46.0671 618.064 47.274 618.064C48.2799 618.064 49.0845 618.265 49.8892 618.869C50.0903 619.07 50.0903 619.07 50.2915 619.07C51.9008 619.875 52.9066 621.283 53.1078 623.094C53.1078 623.698 53.309 624.301 53.309 624.905H54.3148C54.3148 624.502 54.3148 624.1 54.3148 623.698C54.1136 622.289 53.7113 620.68 52.7055 619.673C50.2915 617.259 47.6764 616.052 44.2566 617.661C41.4403 618.869 39.4286 621.082 38.0205 623.899C38.0205 624.1 37.8193 624.301 37.8193 624.301C37.8193 624.502 37.6182 624.502 37.6182 624.704H38.8251Z" fill="#051B30"/>
<path d="M66.5852 607.198C65.9817 610.619 67.1887 613.436 70.005 615.247C72.6201 616.856 75.2352 617.46 78.2527 617.058C78.4539 617.058 78.4539 617.058 78.655 617.058H78.8562C78.8562 617.661 79.0574 618.265 78.8562 618.869C78.8562 619.875 78.8562 620.679 78.655 621.685C78.655 621.887 78.4539 622.289 78.2527 622.49C77.6492 623.094 75.4364 624.502 74.4306 624.905H76.6434C77.2469 624.502 78.0515 624.1 78.655 623.698C79.4597 623.295 79.862 622.49 79.862 621.685C79.862 620.076 79.862 618.466 80.0632 616.856C81.8737 616.253 82.4771 615.85 83.483 615.247L82.8795 614.442C82.0748 615.046 81.069 615.448 80.0632 615.85C79.6608 614.643 79.2585 613.436 78.8562 612.229C78.4539 611.223 77.6492 610.217 77.0457 609.009C77.2469 608.808 77.448 608.607 77.448 608.406L76.6434 607.601C76.2411 608.204 75.8387 608.607 75.2352 609.211C76.4422 610.418 77.448 611.826 78.0515 613.436C78.2527 614.241 78.4539 615.046 78.8562 616.052C78.4539 616.052 78.2527 616.253 77.8504 616.253C75.4364 616.454 73.2236 616.052 71.0108 615.046C70.005 614.442 69.2003 613.838 68.3956 612.832C66.9875 611.223 66.9875 606.997 68.3956 605.589C68.9991 604.784 69.8038 604.18 70.6085 603.577C71.2119 603.174 71.8154 602.973 72.2178 602.772L71.4131 601.967C70.8096 602.168 70.2061 602.571 69.8038 602.772C68.1945 603.577 66.9875 604.985 66.5852 607.198Z" fill="#051B30"/>
<path d="M84.4894 621.082C83.4835 621.685 82.6789 622.289 81.6731 622.893C81.0696 623.295 80.8684 623.698 80.8684 624.502C80.8684 624.704 80.8684 624.704 80.8684 624.905H81.8742V624.704C81.8742 624.502 82.0754 624.1 82.2766 624.1C82.8801 623.496 85.294 622.088 86.501 621.685C86.7022 621.887 86.7022 622.289 86.9033 622.49C87.3057 623.496 87.9092 624.301 88.5126 625.307H89.7196C88.915 624.502 88.3115 623.496 87.9092 622.49C87.708 622.088 87.708 621.685 87.5068 621.283C87.9092 621.082 88.1103 621.082 88.5126 620.881L87.708 620.076C87.5068 620.076 87.3057 620.076 87.3057 620.277C87.1045 619.875 87.1045 619.673 86.9033 619.271L85.8975 618.064C85.8975 618.869 86.0987 619.875 86.2998 620.679C85.4952 620.478 84.8917 620.679 84.4894 621.082Z" fill="#051B30"/>
<path d="M24.341 621.484C23.7375 622.691 23.134 623.697 22.3293 624.703H23.5363C24.1398 623.899 24.7433 623.094 25.1456 622.088C25.3468 621.886 25.3468 621.685 25.548 621.283C25.548 621.283 25.548 621.283 25.7491 621.082C27.1573 621.685 28.5654 622.691 29.7724 623.697C29.9736 623.899 30.1748 624.1 30.1748 624.301C30.1748 624.502 30.1748 624.502 30.1748 624.703H31.3817C31.3817 623.697 30.9794 622.893 29.9736 622.289C28.7666 621.484 27.3585 620.679 26.1515 619.874C26.3526 618.667 26.5538 617.661 26.5538 616.454L25.548 617.661C25.548 618.064 25.548 618.265 25.3468 618.667C25.3468 618.868 25.3468 619.07 25.1456 619.271C25.1456 619.271 25.1456 619.472 24.9445 619.673C24.5422 619.472 24.341 619.472 23.9387 619.271L23.134 620.076C23.7375 620.277 24.1398 620.478 24.7433 620.679C24.5422 621.082 24.341 621.283 24.341 621.484Z" fill="#051B30"/>
<path d="M31.7835 616.857C31.7835 617.058 31.7835 617.259 31.7835 617.46C31.7835 619.07 31.7835 620.478 31.9847 622.088C31.9847 622.692 32.1859 623.094 32.7894 623.295C33.594 623.698 34.3987 624.301 35.2033 624.905H37.215C36.008 624.1 34.5998 623.295 33.3929 622.49C33.1917 622.289 32.9905 622.088 32.9905 621.887C32.7894 620.277 32.5882 618.667 32.9905 617.058C33.1917 617.058 33.594 617.058 33.7952 617.058C36.8126 617.46 39.6289 616.857 42.0429 615.247C43.6522 614.241 45.0604 612.832 45.2615 610.82C45.6639 607.4 45.4627 604.985 41.8417 602.571C41.2383 602.168 40.4336 601.766 39.6289 601.565L38.8243 602.37C39.8301 602.772 40.8359 603.174 41.8417 603.778C42.8476 604.583 43.8534 605.589 44.0546 606.796C44.658 609.814 44.4569 612.028 41.6406 614.04C39.2266 615.85 36.4103 616.253 33.3929 616.052C33.1917 616.052 32.9905 616.052 32.7894 615.851C33.1917 613.034 34.1975 610.82 36.2091 608.808C35.6057 608.205 35.0022 607.601 34.5998 606.796L33.7952 607.601C33.9963 608.003 34.3987 608.406 34.5998 608.808C32.387 612.028 32.5882 612.028 31.5824 615.448C31.3812 615.448 30.9789 615.247 30.7777 615.247C29.9731 614.844 28.9672 614.442 28.3637 613.838L27.7603 614.643C27.9614 614.844 28.1626 614.844 28.3637 615.046C29.5707 615.649 30.7777 616.253 31.7835 616.857Z" fill="#051B30"/>
<path d="M16.8983 677.219C17.5018 677.018 18.1053 677.017 18.7087 676.816L18.5076 675.81C18.3064 675.81 17.9041 675.81 17.7029 676.011C16.8983 673.597 15.4901 671.585 13.4785 669.975C14.4843 668.969 15.6913 668.164 16.8983 667.762L16.6971 666.756C16.0936 667.158 15.289 667.359 14.6855 667.762C14.082 668.164 13.4785 668.768 12.6738 669.372C12.6738 669.372 12.6738 669.372 12.4727 669.372L12.875 671.182C14.2831 671.987 15.8924 674.201 16.8983 677.219Z" fill="#051B30"/>
<path d="M67.5916 721.686H66.3846C66.1834 723.094 66.3846 724.503 66.7869 725.911H67.7927C67.3904 724.704 67.3904 723.094 67.5916 721.686Z" fill="#051B30"/>
<path d="M15.8919 628.325C15.4896 628.325 14.8861 628.325 14.4838 628.124C13.4779 627.721 12.4721 627.319 11.6675 626.514L11.064 627.319C12.4721 628.526 13.6791 629.331 15.2884 629.532L15.8919 628.325Z" fill="#051B30"/>
<path d="M95.1504 628.124L96.1562 629.331C96.7597 629.331 97.162 629.13 97.7655 628.929C98.7713 628.526 99.7772 628.124 100.582 627.319L99.9783 626.514C99.7772 626.715 99.3748 626.917 99.1737 627.118C97.9667 627.923 96.5585 628.325 95.1504 628.124Z" fill="#051B30"/>
<path d="M21.1219 700.76C21.9266 701.364 22.9324 701.766 23.9382 701.968L23.7371 700.76C23.3348 700.559 22.7313 700.358 22.3289 700.157C21.3231 699.553 20.3173 698.748 19.7138 697.943C19.1103 696.937 18.708 695.931 18.9091 694.925C18.9091 694.724 18.9091 694.523 18.9091 694.322C18.708 692.511 19.5126 691.102 20.9208 689.895C21.1219 689.694 21.3231 689.493 21.5243 689.493L21.3231 688.487C19.7138 689.493 18.5068 690.901 18.1045 692.913C18.1045 693.517 17.9033 694.12 17.9033 694.724L18.708 698.145C18.9091 698.949 19.7138 699.754 21.1219 700.76Z" fill="#051B30"/>
<path d="M16.093 664.744L15.8918 663.336C15.0872 662.933 14.4837 662.531 13.8802 661.927L13.679 661.726V661.525C14.2825 660.921 14.886 660.519 15.2883 659.915L15.0872 658.507C14.4837 659.311 13.679 660.116 12.8744 660.72C12.6732 660.519 12.472 660.317 12.2709 660.116C10.4604 657.501 9.65574 654.684 10.0581 651.665C10.2592 649.855 11.0639 648.446 12.6732 647.44L12.472 646.434C10.4604 647.641 9.25341 649.452 9.05225 652.068L10.4604 659.11C10.6616 659.714 11.0639 660.116 11.4662 660.72C11.6674 660.921 11.8685 661.122 11.8685 661.323C11.8685 661.323 11.8685 661.324 11.8685 661.525C11.6674 661.726 11.6674 661.726 11.4662 661.927C11.2651 661.927 11.2651 662.128 11.0639 662.128L11.2651 663.336C11.6674 663.134 12.2709 662.732 12.6732 662.531C13.679 663.336 14.886 664.14 16.093 664.744Z" fill="#051B30"/>
<path d="M75.4368 722.893C76.0403 723.899 76.8449 724.905 77.4484 725.911H78.6554C78.2531 724.905 77.4484 723.899 76.8449 722.893C77.2472 722.491 77.4484 722.088 77.6496 721.686H76.4426C76.2414 722.088 75.8391 722.491 75.4368 722.893Z" fill="#051B30"/>
<path d="M98.9729 646.032L98.7717 647.038C100.381 647.843 101.588 649.05 101.99 651.062C102.192 651.666 102.192 652.47 102.192 653.074L102.795 650.056C102.594 649.251 102.192 648.446 101.387 647.641C100.582 647.239 99.7776 646.635 98.9729 646.032Z" fill="#051B30"/>
<path d="M26.352 725.911C25.5474 725.106 24.9439 724.1 24.1392 722.893C25.1451 721.284 26.1509 719.875 27.3579 718.869L27.1567 717.662C26.7544 718.064 26.1509 718.467 25.7486 718.869C26.352 716.454 26.352 714.04 25.9497 711.625L25.7486 710.418C25.7486 710.418 25.7486 710.418 25.5474 710.418C25.3462 710.016 25.1451 709.613 25.1451 709.412C23.9381 706.797 22.1276 704.784 19.7136 703.577L19.9148 704.986C22.1276 706.394 23.5357 708.406 24.5416 710.821V711.022C23.5357 711.424 22.3288 711.827 21.3229 711.827L21.5241 712.833C22.7311 712.632 23.7369 712.43 24.9439 712.028C24.9439 712.229 25.1451 712.632 25.1451 712.833C25.7486 716.052 24.9439 719.07 23.5357 721.887L24.3404 726.112V726.314H24.9439C24.9439 726.112 24.9439 726.113 24.9439 725.911H26.352Z" fill="#051B30"/>
<path d="M86.9032 709.412C86.702 709.614 86.702 710.016 86.5009 710.217C86.5009 710.217 86.5009 710.217 86.2997 710.419C86.0986 710.217 85.8974 710.217 85.6962 710.016L85.4951 711.022C85.6962 711.223 85.8974 711.223 86.0985 711.425C85.4951 713.839 85.6962 716.254 86.2997 718.668C85.4951 718.064 84.8916 717.461 84.0869 716.857L83.8857 717.863C85.4951 719.07 86.9032 720.68 87.7079 722.29L88.1102 720.278C86.9032 717.662 86.5009 715.046 86.9032 712.028V711.827C86.9032 711.827 86.9032 711.626 87.1044 711.626C87.909 711.827 88.9148 712.229 89.7195 712.229L89.9207 711.223C89.116 711.022 88.1102 710.821 87.3055 710.419C87.3055 710.217 87.3055 710.016 87.5067 709.815C88.3114 707.803 89.5183 706.193 91.1277 704.785L91.53 703.376C89.5183 705.187 87.909 707.199 86.9032 709.412Z" fill="#051B30"/>
<path d="M20.3172 684.865L20.116 683.859C19.9149 684.06 19.7137 684.261 19.3114 684.261C18.1044 684.865 16.8974 685.267 15.6904 685.267L15.8916 686.273C16.6963 686.273 17.7021 686.072 18.7079 685.67C19.3114 685.468 19.7137 685.066 20.3172 684.865Z" fill="#051B30"/>
<path d="M86.3 725.912C86.3 726.113 86.3 726.113 86.3 726.314H87.1047L87.7082 723.497C87.1047 724.302 86.5012 725.308 85.8977 725.912H86.3V725.912Z" fill="#051B30"/>
<path d="M45.4628 721.686H44.457C44.6582 723.296 44.6582 724.704 44.0547 725.911H45.0605C45.2617 725.509 45.2617 725.107 45.4628 724.704C45.664 723.698 45.664 722.692 45.4628 721.686Z" fill="#051B30"/>
<path d="M35.405 721.686H34.198C34.3991 722.088 34.8015 722.491 35.2038 722.893C34.3991 723.698 33.7956 724.704 33.3933 725.911H34.6003C35.2038 724.905 35.8073 723.899 36.6119 722.893C36.2096 722.491 35.8073 722.088 35.405 721.686Z" fill="#051B30"/>
<path d="M99.1737 660.72C98.1679 659.915 97.162 658.909 96.5585 657.702L96.3574 659.11C96.9609 659.915 97.7655 660.72 98.5702 661.726C98.369 661.927 97.9667 662.128 97.7655 662.329C96.9609 662.933 96.1562 663.336 95.3516 663.738L95.1504 664.945C96.7597 664.342 98.1679 663.336 99.576 662.128C99.7772 662.329 100.18 662.531 100.381 662.732L100.582 661.525L100.381 661.323C100.582 661.122 100.582 660.921 100.783 660.72L101.386 657.5C100.984 658.507 100.381 659.513 99.576 660.519C99.3748 660.72 99.3748 660.72 99.1737 660.72Z" fill="#051B30"/>
<path d="M94.5473 667.561C95.7543 667.963 96.9613 668.768 98.1682 669.774C98.3694 669.975 98.3694 669.975 98.5706 670.176C96.7601 671.786 95.1508 673.798 94.3461 676.213C93.7426 676.213 93.1391 676.213 92.7368 676.012L92.5356 677.018C93.3403 677.018 94.145 677.219 94.9496 677.42C95.5531 675.207 96.5589 673.396 98.1682 671.786L98.7717 668.969C97.5648 667.963 96.1566 667.158 94.5473 666.354V667.561Z" fill="#051B30"/>
<path d="M91.3284 683.255L91.1272 684.261C91.5295 684.664 91.9319 684.865 92.5354 685.066C93.5412 685.67 94.3458 685.871 95.3517 686.072L95.5528 685.066C95.1505 685.066 94.7482 684.865 94.3458 684.865C93.1388 684.664 92.133 684.06 91.3284 683.255Z" fill="#051B30"/>
<path d="M90.7252 688.084C90.5241 687.883 90.3229 687.883 90.3229 687.883L90.1217 688.889C90.9264 689.492 91.731 690.096 92.3345 690.901C92.938 691.907 93.3404 692.913 93.3404 694.12C93.3404 694.321 93.3404 694.523 93.3404 694.724C93.5415 696.535 92.7369 697.943 91.5299 699.15C90.3229 700.157 89.1159 700.76 87.7078 701.364L87.5066 702.571C88.7136 702.169 89.9206 701.766 91.1275 700.961C91.731 700.559 92.3345 700.157 92.938 699.553L94.3462 692.309C93.5415 690.499 92.5357 689.291 90.7252 688.084Z" fill="#051B30"/>
<path d="M25.1455 617.863L26.1513 616.655C26.1513 615.448 25.9501 614.04 25.5478 612.832C26.3525 613.436 27.1571 614.04 27.9618 614.643L28.5653 613.838C27.7606 613.235 26.7548 612.43 26.1513 611.625C25.9501 611.223 25.5478 611.022 25.3466 610.619L24.1396 611.826C24.9443 613.838 25.3466 615.851 25.1455 617.863Z" fill="#051B30"/>
<path d="M22.9324 620.277L23.737 619.472C21.9266 618.868 19.9149 618.667 17.9033 619.07L16.6963 620.277C18.9091 619.673 20.9207 619.875 22.9324 620.277Z" fill="#051B30"/>
<path d="M34.1979 607.601L35.0026 606.796C33.9968 605.388 33.3933 603.778 33.1921 601.967L32.1863 602.973C32.3874 603.979 32.7898 604.784 33.1921 605.79C33.3933 606.394 33.7956 606.997 34.1979 607.601Z" fill="#051B30"/>
<path d="M36.4108 601.766C37.2154 601.766 38.2212 601.967 39.0259 602.37L39.8306 601.565C38.0201 600.961 36.2096 600.76 34.3991 600.76L33.3933 601.967C34.3991 601.565 35.405 601.565 36.4108 601.766Z" fill="#051B30"/>
<path d="M87.7078 619.673L88.5124 620.478C90.5241 619.875 92.3345 619.673 94.3462 620.076L93.3404 618.869C91.3287 618.667 89.5182 619.07 87.7078 619.673Z" fill="#051B30"/>
<path d="M82.8799 614.241L83.4834 615.046C84.0869 614.643 84.8915 613.838 86.2997 612.832C85.8973 614.442 85.6962 616.052 85.6962 617.661L86.702 618.869C86.702 618.667 86.702 618.265 86.702 618.064C86.5008 616.253 86.9032 614.442 87.5067 612.631L86.2997 611.223C85.2939 612.43 84.0869 613.436 82.8799 614.241Z" fill="#051B30"/>
<path d="M76.6438 607.4L77.4485 608.205C78.4543 606.796 79.0578 605.388 79.6613 603.778L78.8566 602.772C78.6554 603.778 78.2531 604.784 77.8508 605.79C77.4485 606.193 77.0461 606.796 76.6438 607.4Z" fill="#051B30"/>
<path d="M72.4192 602.369C74.2296 601.766 76.0401 601.363 77.8506 601.565L76.8448 600.559C75.0343 600.559 73.2238 600.76 71.6145 601.565L72.4192 602.369Z" fill="#051B30"/>
<path d="M78.6552 725.911H77.4482C77.4482 725.911 77.4482 726.113 77.6494 726.113V726.314H78.8564V726.113C78.8564 725.911 78.6552 725.911 78.6552 725.911Z" fill="#051B30"/>
<path d="M26.3525 725.911H25.1455C25.1455 726.113 25.1455 726.113 25.1455 726.314H26.7548C26.5537 726.113 26.3525 725.911 26.3525 725.911Z" fill="#051B30"/>
<path d="M33.1919 725.911C33.1919 726.113 32.9907 726.113 32.9907 726.314H34.1977C34.1977 726.113 34.3989 726.113 34.3989 725.911H33.1919Z" fill="#051B30"/>
<path d="M85.6958 725.911C85.4946 726.113 85.4946 726.113 85.2935 726.314H86.0981C86.0981 726.113 86.0981 726.113 86.0981 725.911H85.6958Z" fill="#051B30"/>
<path d="M66.9873 725.911C66.9873 726.113 67.1885 726.113 67.1885 726.314H68.3955C68.3955 726.113 68.1943 726.113 68.1943 725.911H66.9873Z" fill="#051B30"/>
<path d="M44.0544 725.911C44.0544 726.113 43.8533 726.113 43.8533 726.314H44.8591C44.8591 726.113 45.0603 726.113 45.0603 725.911H44.0544Z" fill="#051B30"/>
<path d="M61.7577 598.748C60.1483 597.742 59.1425 596.333 58.7402 594.522C58.3379 594.522 57.9355 594.522 57.7344 594.522C57.7344 594.724 57.9355 594.724 57.9355 594.925C58.539 597.943 60.5507 599.553 62.9646 600.357C64.9763 601.162 66.7868 600.559 68.5972 599.754C68.9996 599.553 69.4019 599.351 69.6031 599.15L68.9996 598.345C68.7984 598.547 68.5972 598.547 68.3961 598.748C65.9821 599.955 63.9705 600.156 61.7577 598.748Z" fill="#051B30"/>
<path d="M68.7986 598.345L69.4021 599.15C70.6091 598.345 71.816 597.138 72.6207 595.931L71.8161 595.126C71.2126 596.333 70.0056 597.54 68.7986 598.345Z" fill="#051B30"/>
<path d="M48.481 600.559C49.4868 600.357 50.0903 599.754 50.8949 599.351C52.3031 598.546 53.3089 597.339 53.9124 595.729C54.1136 595.327 54.1136 594.723 54.3147 594.321C53.9124 594.321 53.5101 594.321 53.3089 594.321C52.9066 596.132 52.1019 597.742 50.2914 598.546C50.0903 598.546 50.0903 598.748 50.0903 598.748C48.8833 599.552 47.6763 599.754 46.4693 599.552C45.0612 599.351 44.0554 598.748 43.0495 597.943L42.446 598.748C42.8484 599.15 43.4519 599.351 43.8542 599.754C45.0612 600.559 46.6705 600.961 48.481 600.559Z" fill="#051B30"/>
<path d="M42.0428 598.748L42.6463 597.943C41.4394 597.138 40.4335 595.931 39.6289 594.522L38.8242 595.327C39.83 596.736 40.8359 597.742 42.0428 598.748Z" fill="#051B30"/>
<path d="M56.728 341H54.9175V509.411H56.728V341Z" fill="#051B30"/>
<line x1="56" y1="1" x2="56" y2="506" stroke="#051B30" stroke-width="2" stroke-linecap="round" stroke-linejoin="round"/>
</svg>
